<svg width="1776" height="1080" viewBox="0 0 1776 1080" fill="none" xmlns="http://www.w3.org/2000/svg">
<g clip-path="url(#clip0_1_48)">
<path d="M0 90C0 40.2944 40.2944 0 90 0H1686C1735.71 0 1776 40.2944 1776 90V1080H0V90Z" fill="black"/>
<path d="M1545.91 1337.75L1589.44 1126.13L1379.34 1075.77L1584.37 1007.66L1522.94 800.526L1684.44 944.034L1833.1 787.262L1789.58 998.883L1999.67 1049.24L1794.64 1117.36L1856.08 1324.49L1694.57 1180.98L1545.91 1337.75Z" fill="#C6FF34"/>
<path d="M164.561 1307.28L-6.12474 1174.82L-144.039 1341.13L-114.672 1127.08L-327.654 1090.8L-127.602 1009.21L-202.67 806.616L-31.9845 939.071L105.929 772.765L76.5628 986.811L289.545 1023.09L89.4927 1104.69L164.561 1307.28Z" fill="white"/>
<path d="M928.599 1074.22L660.557 1100.52L678.16 1369.27L521.364 1150.29L297.419 1299.91L408.664 1054.63L167.116 935.497L435.158 909.198L417.555 640.445L574.351 859.427L798.296 709.806L687.05 955.086L928.599 1074.22Z" fill="white"/>
<path d="M638.262 1111.63L417.837 1161.42L538.494 1352.49L347.422 1231.84L297.631 1452.26L247.84 1231.84L56.7686 1352.49L177.426 1161.42L-42.9999 1111.63L177.426 1061.84L56.7686 870.768L247.84 991.426L297.631 771L347.422 991.426L538.494 870.768L417.837 1061.84L638.262 1111.63Z" fill="#C6FF34"/>
<path d="M1087.63 1352.31L917.311 1187.42L746.995 1352.31L804.632 1122.37L576.68 1057.31L804.632 992.256L746.995 762.316L917.31 927.201L1087.63 762.316L1029.99 992.256L1257.94 1057.31L1029.99 1122.37L1087.63 1352.31Z" fill="#C6FF34"/>
<path d="M1443.78 1426.31L1334.13 1182.01L1140.58 1367.07L1235.79 1116.79L968.08 1110.78L1212.38 1001.13L1027.33 807.579L1277.61 902.793L1283.62 635.08L1393.27 879.382L1586.82 694.329L1491.6 944.61L1759.31 950.617L1515.01 1060.27L1700.07 1253.82L1449.79 1158.6L1443.78 1426.31Z" fill="white"/>
<path d="M841.205 1021.76C839.285 1021.76 837.485 1021.4 835.805 1020.68C834.152 1019.96 832.685 1018.97 831.405 1017.72C830.125 1016.44 829.125 1014.96 828.405 1013.28C827.685 1011.6 827.325 1009.8 827.325 1007.88C827.325 1005.96 827.685 1004.17 828.405 1002.52C829.125 1000.84 830.112 999.36 831.365 998.08C832.645 996.8 834.125 995.8 835.805 995.08C837.485 994.36 839.285 994 841.205 994C843.125 994 844.925 994.36 846.605 995.08C848.285 995.8 849.752 996.8 851.005 998.08C852.285 999.333 853.285 1000.8 854.005 1002.48C854.725 1004.16 855.085 1005.96 855.085 1007.88C855.085 1009.8 854.725 1011.6 854.005 1013.28C853.285 1014.96 852.285 1016.44 851.005 1017.72C849.752 1018.97 848.285 1019.96 846.605 1020.68C844.925 1021.4 843.125 1021.76 841.205 1021.76ZM841.165 1015.44C843.965 1015.44 846.112 1014.01 847.605 1011.16L846.205 1010.4C845.618 1011.44 844.898 1012.23 844.045 1012.76C843.218 1013.27 842.258 1013.52 841.165 1013.52C840.045 1013.52 839.058 1013.27 838.205 1012.76C837.378 1012.23 836.685 1011.44 836.125 1010.4L834.765 1011.16C836.258 1014.01 838.392 1015.44 841.165 1015.44ZM835.925 1006.8C836.458 1006.8 836.885 1006.63 837.205 1006.28C837.552 1005.93 837.725 1005.51 837.725 1005C837.725 1004.49 837.552 1004.07 837.205 1003.72C836.885 1003.37 836.458 1003.2 835.925 1003.2C835.418 1003.2 834.992 1003.37 834.645 1003.72C834.298 1004.07 834.125 1004.49 834.125 1005C834.125 1005.51 834.298 1005.93 834.645 1006.28C834.992 1006.63 835.418 1006.8 835.925 1006.8ZM846.485 1006.8C846.992 1006.8 847.418 1006.64 847.765 1006.32C848.112 1005.97 848.285 1005.53 848.285 1005C848.285 1004.49 848.112 1004.07 847.765 1003.72C847.418 1003.37 846.992 1003.2 846.485 1003.2C845.978 1003.2 845.552 1003.37 845.205 1003.72C844.858 1004.07 844.685 1004.49 844.685 1005C844.685 1005.51 844.858 1005.93 845.205 1006.28C845.552 1006.63 845.978 1006.8 846.485 1006.8ZM869.16 1015.92C869.16 1013.6 869.533 1011.72 870.28 1010.28C871.027 1008.81 871.92 1007.69 872.96 1006.92C874.027 1006.15 875.387 1005.35 877.04 1004.52C878.24 1003.91 879.173 1003.39 879.84 1002.96C880.533 1002.51 881.093 1001.95 881.52 1001.28C881.973 1000.59 882.2 999.747 882.2 998.76C882.2 997.24 881.813 996.107 881.04 995.36C880.293 994.613 879.12 994.24 877.52 994.24C874.453 994.24 872.92 995.96 872.92 999.4H869.12C869.12 996.493 869.867 994.333 871.36 992.92C872.88 991.48 874.987 990.76 877.68 990.76C880.32 990.76 882.373 991.427 883.84 992.76C885.307 994.067 886.04 996.053 886.04 998.72C886.04 1000.45 885.733 1001.87 885.12 1002.96C884.533 1004.05 883.8 1004.91 882.92 1005.52C882.067 1006.11 880.92 1006.73 879.48 1007.4C878.04 1008.07 876.893 1008.69 876.04 1009.28C875.213 1009.87 874.507 1010.69 873.92 1011.76C873.333 1012.8 873.04 1014.17 873.04 1015.88V1018.24H885.8V1022H869.16V1015.92ZM898.267 1022.4C895.254 1022.4 893.08 1021.71 891.747 1020.32C890.44 1018.93 889.787 1016.65 889.787 1013.48V999.52C889.787 993.92 892.614 991.12 898.267 991.12C903.707 991.12 906.427 993.92 906.427 999.52V1013.48C906.427 1016.65 905.787 1018.93 904.507 1020.32C903.227 1021.71 901.147 1022.4 898.267 1022.4ZM898.267 1018.92C899.76 1018.92 900.854 1018.52 901.547 1017.72C902.267 1016.92 902.627 1015.51 902.627 1013.48V999.52C902.627 998.16 902.454 997.12 902.107 996.4C901.787 995.653 901.32 995.147 900.707 994.88C900.094 994.613 899.28 994.48 898.267 994.48C896.667 994.48 895.48 994.827 894.707 995.52C893.96 996.213 893.587 997.547 893.587 999.52V1013.48C893.587 1014.89 893.734 1016 894.027 1016.8C894.347 1017.57 894.84 1018.12 895.507 1018.44C896.174 1018.76 897.094 1018.92 898.267 1018.92ZM910.332 1015.92C910.332 1013.6 910.705 1011.72 911.452 1010.28C912.199 1008.81 913.092 1007.69 914.132 1006.92C915.199 1006.15 916.559 1005.35 918.212 1004.52C919.412 1003.91 920.345 1003.39 921.012 1002.96C921.705 1002.51 922.265 1001.95 922.692 1001.28C923.145 1000.59 923.372 999.747 923.372 998.76C923.372 997.24 922.985 996.107 922.212 995.36C921.465 994.613 920.292 994.24 918.692 994.24C915.625 994.24 914.092 995.96 914.092 999.4H910.292C910.292 996.493 911.039 994.333 912.532 992.92C914.052 991.48 916.159 990.76 918.852 990.76C921.492 990.76 923.545 991.427 925.012 992.76C926.479 994.067 927.212 996.053 927.212 998.72C927.212 1000.45 926.905 1001.87 926.292 1002.96C925.705 1004.05 924.972 1004.91 924.092 1005.52C923.239 1006.11 922.092 1006.73 920.652 1007.4C919.212 1008.07 918.065 1008.69 917.212 1009.28C916.385 1009.87 915.679 1010.69 915.092 1011.76C914.505 1012.8 914.212 1014.17 914.212 1015.88V1018.24H926.972V1022H910.332V1015.92ZM945.759 991.36C943.786 992.72 941.986 994.173 940.359 995.72C938.732 997.24 937.559 998.707 936.839 1000.12C938.066 999.8 939.439 999.64 940.959 999.64C943.359 999.64 945.226 1000.32 946.559 1001.68C947.919 1003.01 948.599 1005.05 948.599 1007.8V1013.48C948.599 1016.68 947.919 1018.97 946.559 1020.36C945.226 1021.72 942.986 1022.4 939.839 1022.4C936.692 1022.4 934.439 1021.72 933.079 1020.36C931.746 1018.97 931.079 1016.68 931.079 1013.48V1007.8C931.079 1004.31 931.972 1001.12 933.759 998.24C935.546 995.36 937.839 992.973 940.639 991.08H945.679L945.759 991.36ZM939.839 1018.76C941.039 1018.76 941.986 1018.61 942.679 1018.32C943.399 1018 943.932 1017.47 944.279 1016.72C944.626 1015.95 944.799 1014.87 944.799 1013.48V1007.8C944.799 1005.93 944.412 1004.65 943.639 1003.96C942.892 1003.27 941.626 1002.92 939.839 1002.92C938.052 1002.92 936.772 1003.27 935.999 1003.96C935.252 1004.65 934.879 1005.93 934.879 1007.8V1013.48C934.879 1014.87 935.052 1015.95 935.399 1016.72C935.746 1017.47 936.266 1018 936.959 1018.32C937.679 1018.61 938.639 1018.76 939.839 1018.76Z" fill="black"/>
</g>
<defs>
<clipPath id="clip0_1_48">
<path d="M0 90C0 40.2944 40.2944 0 90 0H1686C1735.71 0 1776 40.2944 1776 90V1080H0V90Z" fill="white"/>
</clipPath>
</defs>
</svg>
