<svg width="272" height="136" viewBox="0 0 272 136" fill="none" xmlns="http://www.w3.org/2000/svg">
<path d="M20.4297 0C27.827 0 34.3059 3.93171 37.8911 9.81929C38.6181 11.0132 40.0785 11.6115 41.3984 11.1514C64.2623 3.18084 88.0943 11.9131 94.6279 30.6553C101.161 49.3973 87.9223 71.052 65.0586 79.0225C42.1949 86.9928 18.3637 78.2606 11.8301 59.5186C10.3018 55.1345 9.85543 50.5912 10.361 46.1009C10.823 41.9971 8.9356 37.8149 6.01006 34.9002C2.29766 31.2016 0 26.0843 0 20.4297C7.31869e-05 9.14672 9.14672 7.42225e-05 20.4297 0Z" fill="black"/>
<path d="M151.509 21.0263C217.972 21.0263 271.85 46.7638 271.851 78.5126C271.851 110.262 217.972 136 151.509 136C85.0458 136 31.1661 110.262 31.1661 78.5126C31.1662 76.4847 31.3861 74.4812 31.8151 72.5075C32.0754 71.3095 31.4641 70.0825 30.4733 69.3606C26.9098 66.7648 24.4562 61.3217 24.4562 55.0263C24.4562 46.2139 29.2637 39.0702 35.1935 39.0702C39.1639 39.0705 42.6295 42.2737 44.4865 47.0358C45.167 48.7811 47.4426 49.5927 48.9218 48.4435C70.0956 31.9945 108.121 21.0263 151.509 21.0263Z" fill="white"/>
<path d="M85.0745 67.2544C90.2689 70.6097 100.688 75.6351 100.807 68.8948C100.926 62.1544 95.5043 47.7442 92.7784 41.3816C92.6642 39.7997 92.5309 38.2548 92.3815 36.7588" stroke="black" stroke-width="3.57895" stroke-linecap="round" stroke-linejoin="round"/>
<path d="M92.1582 70.9081C88.5644 79.4912 94.9911 110.127 49.0617 84.9256C13.5571 65.4441 62.1347 110.376 82.0923 116.018" stroke="black" stroke-width="3.57895" stroke-linecap="round" stroke-linejoin="round"/>
<path d="M79.223 44.6619C74.1688 41.8531 64.47 45.8704 64.47 45.8704C64.47 45.8704 70.6195 53.9076 76.394 55.2196C80.0449 56.0491 85.9646 54.7401 85.9646 54.7401C85.9646 54.7401 83.3695 46.9662 79.223 44.6619Z" stroke="black" stroke-width="3.57895" stroke-linejoin="round"/>
<path d="M118.207 56.9762C121.129 56.9762 123.454 57.6581 125.18 59.0221C126.905 60.3861 127.768 62.4738 127.768 65.2853C127.768 66.7328 127.434 68.0271 126.766 69.1684C126.098 70.2819 125.11 71.1031 123.802 71.6319C125.5 71.9938 126.808 72.815 127.727 74.0955C128.673 75.3481 129.146 77.0461 129.146 79.1895C129.146 82.8639 128.2 85.4526 126.307 86.9558C124.414 88.459 121.547 89.2105 117.706 89.2105H108.979V56.9762H118.207ZM114.741 69.3772H118.248C119.362 69.3772 120.211 69.0293 120.795 68.3333C121.408 67.6096 121.714 66.7049 121.714 65.6193C121.714 64.645 121.45 63.8239 120.921 63.1558C120.392 62.4877 119.487 62.1537 118.207 62.1537H114.741V69.3772ZM117.789 83.9495C119.097 83.9495 120.113 83.8242 120.837 83.5737C121.561 83.3232 122.09 82.8639 122.424 82.1958C122.786 81.5277 122.967 80.5674 122.967 79.3148C122.967 77.6724 122.591 76.5033 121.839 75.8074C121.116 75.0836 119.738 74.7218 117.706 74.7218H114.699V83.9495H117.789ZM152.074 62.0702H139.339V70.3376H150.195V75.5151H139.339V83.9912H152.658V89.2523H133.576V57.0597H152.074V62.0702ZM172.97 89.2105V75.9326H162.949V89.2105H157.145V57.0179H162.949V70.6716H172.97V57.0179H178.69V89.2105H172.97ZM203.003 62.0702H190.268V70.3376H201.124V75.5151H190.268V83.9912H203.587V89.2523H184.505V57.0597H203.003V62.0702ZM216.174 57.0597C220.099 57.0597 222.98 57.8252 224.817 59.3562C226.654 60.8593 227.573 63.295 227.573 66.6632V69.6277C227.573 72.9402 226.627 75.3898 224.734 76.9765C222.869 78.5632 220.016 79.3565 216.174 79.3565H213.961V89.2105H208.074V57.0597H216.174ZM216.174 73.8032C218.206 73.8032 219.64 73.4552 220.475 72.7593C221.31 72.0356 221.727 70.8943 221.727 69.3355V66.9555C221.727 65.8698 221.574 64.993 221.268 64.3249C220.962 63.6569 220.405 63.1558 219.598 62.8218C218.819 62.4877 217.705 62.3207 216.258 62.3207H213.919V73.8032H216.174ZM247.16 89.2105L245.532 83.5319H237.306L235.636 89.2105H229.707L238.6 57.1014H244.321L253.089 89.2105H247.16ZM241.398 65.9951L238.726 77.8951H244.07L241.398 65.9951Z" fill="black"/>
<path d="M125.335 92.7372H126.029V98.2631H121.29V92.7372H121.978V97.6118H123.33V92.7372H123.989V97.6118H125.335V92.7372ZM127.967 96.4021H127.602V98.2631H126.922V94.1044H127.602V95.7865H127.831C127.969 95.7865 128.084 95.7531 128.175 95.6863C128.265 95.6195 128.339 95.5384 128.397 95.4429C128.454 95.3475 128.521 95.2115 128.597 95.0349C128.683 94.8297 128.764 94.6651 128.84 94.541C128.917 94.4122 129.024 94.3048 129.162 94.2189C129.306 94.1282 129.487 94.0829 129.706 94.0829C129.778 94.0829 129.833 94.0853 129.871 94.0901L129.857 94.7128C129.828 94.708 129.79 94.7056 129.742 94.7056C129.59 94.7056 129.473 94.7558 129.392 94.856C129.31 94.9562 129.227 95.1136 129.141 95.3284C129.06 95.5288 128.979 95.6934 128.898 95.8223C128.821 95.9464 128.716 96.0537 128.583 96.1444L130.122 98.2631H129.313L127.967 96.4021ZM132.082 98.3347C131.518 98.3347 131.115 98.213 130.872 97.9696C130.633 97.7215 130.514 97.3111 130.514 96.7385V95.5431C130.514 95.0087 130.648 94.6221 130.915 94.3835C131.187 94.1449 131.576 94.0256 132.082 94.0256C132.587 94.0256 132.974 94.1449 133.241 94.3835C133.513 94.6221 133.649 95.0087 133.649 95.5431V96.7385C133.649 97.3064 133.525 97.7144 133.277 97.9625C133.034 98.2106 132.635 98.3347 132.082 98.3347ZM132.082 97.7406C132.401 97.7406 132.628 97.6666 132.762 97.5187C132.9 97.3708 132.969 97.1107 132.969 96.7385V95.5431C132.969 95.2998 132.936 95.1113 132.869 94.9776C132.802 94.844 132.704 94.7534 132.575 94.7056C132.451 94.6579 132.287 94.6341 132.082 94.6341C131.876 94.6341 131.709 94.6579 131.581 94.7056C131.456 94.7534 131.361 94.844 131.294 94.9776C131.227 95.1113 131.194 95.2998 131.194 95.5431V96.7385C131.194 97.1107 131.263 97.3708 131.402 97.5187C131.54 97.6666 131.767 97.7406 132.082 97.7406ZM134.194 97.6189C134.461 97.6046 134.654 97.4877 134.774 97.2682C134.898 97.0487 134.969 96.822 134.988 96.5882C135.007 96.3544 135.019 96.0346 135.024 95.629L135.046 94.1044H137.579V98.2631H136.892V94.7414H135.726L135.704 95.6362C135.69 96.1706 135.652 96.6168 135.59 96.9747C135.528 97.3326 135.387 97.638 135.167 97.8909C134.952 98.1438 134.628 98.2751 134.194 98.2846V97.6189ZM140.655 98.2631L140.598 97.6976C140.517 97.8647 140.378 98.0078 140.183 98.1271C139.992 98.2416 139.775 98.2989 139.531 98.2989C139.097 98.2989 138.787 98.2059 138.601 98.0198C138.42 97.8336 138.315 97.5927 138.286 97.2968C138.281 97.2634 138.279 97.2181 138.279 97.1608C138.279 96.8268 138.393 96.55 138.622 96.3305C138.856 96.1062 139.174 95.9654 139.574 95.9082C139.794 95.8748 140.13 95.8533 140.584 95.8438V95.4358C140.584 95.1781 140.524 94.9848 140.405 94.856C140.29 94.7224 140.085 94.6555 139.789 94.6555C139.574 94.6555 139.41 94.708 139.295 94.813C139.181 94.9132 139.126 95.0946 139.131 95.357H138.465C138.451 94.9037 138.558 94.5696 138.787 94.3549C139.016 94.1402 139.357 94.0328 139.811 94.0328C140.288 94.0328 140.65 94.1449 140.899 94.3692C141.147 94.5887 141.271 94.9442 141.271 95.4358V98.2631H140.655ZM140.598 96.4092C140.407 96.4092 140.235 96.414 140.083 96.4235C139.935 96.4283 139.784 96.4474 139.632 96.4808C139.188 96.5762 138.966 96.7862 138.966 97.1107C138.966 97.1536 138.968 97.1871 138.973 97.2109C138.987 97.3636 139.052 97.4758 139.166 97.5473C139.286 97.6141 139.431 97.6475 139.603 97.6475C139.951 97.6475 140.2 97.5378 140.347 97.3183C140.5 97.094 140.584 96.791 140.598 96.4092ZM147.079 94.1044V98.2631H146.406V95.2353L144.666 98.2631H143.936V94.1044H144.616V97.1107L146.341 94.1044H147.079ZM150.928 96.8459C150.923 97.2133 150.868 97.5068 150.763 97.7263C150.663 97.941 150.501 98.0961 150.277 98.1915C150.057 98.287 149.764 98.3347 149.396 98.3347C148.847 98.3347 148.449 98.2106 148.201 97.9625C147.953 97.7096 147.829 97.3016 147.829 96.7385V95.5503C147.829 95.0158 147.962 94.6293 148.229 94.3907C148.501 94.1473 148.89 94.0256 149.396 94.0256C149.888 94.0256 150.26 94.1306 150.513 94.3406C150.77 94.5506 150.909 94.9132 150.928 95.4286L150.284 95.4358C150.269 95.1256 150.191 94.918 150.047 94.813C149.909 94.708 149.692 94.6555 149.396 94.6555C149.186 94.6555 149.019 94.6794 148.895 94.7271C148.771 94.7701 148.676 94.8584 148.609 94.992C148.542 95.1208 148.509 95.3069 148.509 95.5503V96.7385C148.509 97.1012 148.578 97.3493 148.716 97.4829C148.859 97.6165 149.086 97.6833 149.396 97.6833C149.606 97.6833 149.773 97.6619 149.897 97.6189C150.021 97.576 150.114 97.4948 150.176 97.3755C150.243 97.2562 150.279 97.0797 150.284 96.8459H150.928ZM154.101 94.7343H153.035V98.2631H152.355V94.7343H151.288V94.1044H154.101V94.7343ZM156.086 98.3347C155.523 98.3347 155.119 98.213 154.876 97.9696C154.637 97.7215 154.518 97.3111 154.518 96.7385V95.5431C154.518 95.0087 154.652 94.6221 154.919 94.3835C155.191 94.1449 155.58 94.0256 156.086 94.0256C156.591 94.0256 156.978 94.1449 157.245 94.3835C157.517 94.6221 157.653 95.0087 157.653 95.5431V96.7385C157.653 97.3064 157.529 97.7144 157.281 97.9625C157.038 98.2106 156.639 98.3347 156.086 98.3347ZM156.086 97.7406C156.405 97.7406 156.632 97.6666 156.766 97.5187C156.904 97.3708 156.973 97.1107 156.973 96.7385V95.5431C156.973 95.2998 156.94 95.1113 156.873 94.9776C156.806 94.844 156.708 94.7534 156.58 94.7056C156.455 94.6579 156.291 94.6341 156.086 94.6341C155.88 94.6341 155.713 94.6579 155.585 94.7056C155.461 94.7534 155.365 94.844 155.298 94.9776C155.231 95.1113 155.198 95.2998 155.198 95.5431V96.7385C155.198 97.1107 155.267 97.3708 155.406 97.5187C155.544 97.6666 155.771 97.7406 156.086 97.7406ZM159.057 94.0758L159.143 94.6269C159.205 94.4504 159.331 94.312 159.522 94.2118C159.713 94.1068 159.932 94.0543 160.181 94.0543C160.629 94.0543 160.978 94.1712 161.226 94.405C161.474 94.6388 161.598 95.0254 161.598 95.5646V96.6669C161.598 97.2157 161.474 97.6237 161.226 97.8909C160.982 98.1581 160.634 98.2918 160.181 98.2918C159.932 98.2918 159.73 98.2679 159.572 98.2202C159.415 98.1677 159.281 98.0699 159.171 97.9267V99.6732H158.484V94.0758H159.057ZM159.171 96.6884C159.171 97.0415 159.236 97.2873 159.365 97.4256C159.498 97.564 159.72 97.6332 160.03 97.6332C160.34 97.6332 160.565 97.5616 160.703 97.4185C160.846 97.2706 160.918 97.0153 160.918 96.6526V95.5574C160.918 95.2282 160.851 95.0015 160.717 94.8774C160.589 94.7534 160.376 94.6913 160.08 94.6913C159.775 94.7009 159.546 94.7868 159.393 94.949C159.245 95.1113 159.171 95.3904 159.171 95.7865V96.6884ZM165.589 94.1044V98.2631H164.916V95.2353L163.176 98.2631H162.446V94.1044H163.126V97.1107L164.851 94.1044H165.589ZM169.538 94.1044V98.2631H168.865V95.2353L167.126 98.2631H166.396V94.1044H167.076V97.1107L168.801 94.1044H169.538ZM174.411 98.2631L174.353 97.6976C174.272 97.8647 174.134 98.0078 173.938 98.1271C173.747 98.2416 173.53 98.2989 173.287 98.2989C172.853 98.2989 172.542 98.2059 172.356 98.0198C172.175 97.8336 172.07 97.5927 172.041 97.2968C172.037 97.2634 172.034 97.2181 172.034 97.1608C172.034 96.8268 172.149 96.55 172.378 96.3305C172.612 96.1062 172.929 95.9654 173.33 95.9082C173.549 95.8748 173.886 95.8533 174.339 95.8438V95.4358C174.339 95.1781 174.279 94.9848 174.16 94.856C174.046 94.7224 173.84 94.6555 173.544 94.6555C173.33 94.6555 173.165 94.708 173.051 94.813C172.936 94.9132 172.881 95.0946 172.886 95.357H172.22C172.206 94.9037 172.313 94.5696 172.542 94.3549C172.771 94.1402 173.113 94.0328 173.566 94.0328C174.043 94.0328 174.406 94.1449 174.654 94.3692C174.902 94.5887 175.026 94.9442 175.026 95.4358V98.2631H174.411ZM174.353 96.4092C174.162 96.4092 173.991 96.414 173.838 96.4235C173.69 96.4283 173.54 96.4474 173.387 96.4808C172.943 96.5762 172.721 96.7862 172.721 97.1107C172.721 97.1536 172.724 97.1871 172.728 97.2109C172.743 97.3636 172.807 97.4758 172.922 97.5473C173.041 97.6141 173.187 97.6475 173.358 97.6475C173.707 97.6475 173.955 97.5378 174.103 97.3183C174.256 97.094 174.339 96.791 174.353 96.4092ZM178.315 95.765V94.1044H178.995V98.2631H178.315V96.3949H176.582V98.2631H175.902V94.1044H176.582V95.765H178.315ZM182.236 94.7343H181.17V98.2631H180.49V94.7343H179.423V94.1044H182.236V94.7343ZM185.853 94.1044V98.2631H185.18V95.2353L183.441 98.2631H182.711V94.1044H183.391V97.1107L185.116 94.1044H185.853ZM187.233 95.2568C187.233 95.5049 187.261 95.7006 187.319 95.8438C187.376 95.9821 187.464 96.08 187.583 96.1372C187.707 96.1945 187.875 96.2231 188.084 96.2231C188.371 96.2231 188.583 96.1492 188.722 96.0012C188.86 95.8533 188.931 95.6147 188.936 95.2854L188.943 94.1044H189.616V98.2631H188.936V96.4522C188.855 96.5762 188.731 96.6788 188.564 96.76C188.397 96.8411 188.204 96.8816 187.984 96.8816C187.474 96.8816 187.109 96.748 186.889 96.4808C186.67 96.2136 186.56 95.8104 186.56 95.2711V94.1044H187.233V95.2568ZM192.847 95.765V94.1044H193.527V98.2631H192.847V96.3949H191.115V98.2631H190.435V94.1044H191.115V95.765H192.847ZM195.846 98.3347C195.282 98.3347 194.879 98.213 194.636 97.9696C194.397 97.7215 194.278 97.3111 194.278 96.7385V95.5431C194.278 95.0087 194.412 94.6221 194.679 94.3835C194.951 94.1449 195.34 94.0256 195.846 94.0256C196.351 94.0256 196.738 94.1449 197.005 94.3835C197.277 94.6221 197.413 95.0087 197.413 95.5431V96.7385C197.413 97.3064 197.289 97.7144 197.041 97.9625C196.798 98.2106 196.399 98.3347 195.846 98.3347ZM195.846 97.7406C196.165 97.7406 196.392 97.6666 196.526 97.5187C196.664 97.3708 196.733 97.1107 196.733 96.7385V95.5431C196.733 95.2998 196.7 95.1113 196.633 94.9776C196.566 94.844 196.468 94.7534 196.339 94.7056C196.215 94.6579 196.051 94.6341 195.846 94.6341C195.64 94.6341 195.473 94.6579 195.344 94.7056C195.22 94.7534 195.125 94.844 195.058 94.9776C194.991 95.1113 194.958 95.2998 194.958 95.5431V96.7385C194.958 97.1107 195.027 97.3708 195.166 97.5187C195.304 97.6666 195.531 97.7406 195.846 97.7406ZM198.208 94.0972H200.427V94.7343H198.874V98.2631H198.208V94.0972ZM202.486 98.3347C201.923 98.3347 201.52 98.213 201.276 97.9696C201.038 97.7215 200.919 97.3111 200.919 96.7385V95.5431C200.919 95.0087 201.052 94.6221 201.319 94.3835C201.591 94.1449 201.98 94.0256 202.486 94.0256C202.992 94.0256 203.379 94.1449 203.646 94.3835C203.918 94.6221 204.054 95.0087 204.054 95.5431V96.7385C204.054 97.3064 203.93 97.7144 203.682 97.9625C203.438 98.2106 203.04 98.3347 202.486 98.3347ZM202.486 97.7406C202.806 97.7406 203.033 97.6666 203.166 97.5187C203.305 97.3708 203.374 97.1107 203.374 96.7385V95.5431C203.374 95.2998 203.34 95.1113 203.274 94.9776C203.207 94.844 203.109 94.7534 202.98 94.7056C202.856 94.6579 202.691 94.6341 202.486 94.6341C202.281 94.6341 202.114 94.6579 201.985 94.7056C201.861 94.7534 201.766 94.844 201.699 94.9776C201.632 95.1113 201.599 95.2998 201.599 95.5431V96.7385C201.599 97.1107 201.668 97.3708 201.806 97.5187C201.945 97.6666 202.171 97.7406 202.486 97.7406ZM209.766 94.1044V98.2631H209.093V95.2353L207.354 98.2631H206.624V94.1044H207.304V97.1107L209.029 94.1044H209.766ZM213.615 96.8459C213.611 97.2133 213.556 97.5068 213.451 97.7263C213.351 97.941 213.188 98.0961 212.964 98.1915C212.745 98.287 212.451 98.3347 212.084 98.3347C211.535 98.3347 211.136 98.2106 210.888 97.9625C210.64 97.7096 210.516 97.3016 210.516 96.7385V95.5503C210.516 95.0158 210.65 94.6293 210.917 94.3907C211.189 94.1473 211.578 94.0256 212.084 94.0256C212.575 94.0256 212.947 94.1306 213.2 94.3406C213.458 94.5506 213.596 94.9132 213.615 95.4286L212.971 95.4358C212.957 95.1256 212.878 94.918 212.735 94.813C212.597 94.708 212.379 94.6555 212.084 94.6555C211.874 94.6555 211.707 94.6794 211.583 94.7271C211.458 94.7701 211.363 94.8584 211.296 94.992C211.229 95.1208 211.196 95.3069 211.196 95.5503V96.7385C211.196 97.1012 211.265 97.3493 211.404 97.4829C211.547 97.6165 211.773 97.6833 212.084 97.6833C212.294 97.6833 212.461 97.6619 212.585 97.6189C212.709 97.576 212.802 97.4948 212.864 97.3755C212.931 97.2562 212.966 97.0797 212.971 96.8459H213.615ZM215.386 96.4021H215.021V98.2631H214.341V94.1044H215.021V95.7865H215.25C215.388 95.7865 215.503 95.7531 215.593 95.6863C215.684 95.6195 215.758 95.5384 215.815 95.4429C215.872 95.3475 215.939 95.2115 216.016 95.0349C216.101 94.8297 216.183 94.6651 216.259 94.541C216.335 94.4122 216.443 94.3048 216.581 94.2189C216.724 94.1282 216.906 94.0829 217.125 94.0829C217.197 94.0829 217.252 94.0853 217.29 94.0901L217.275 94.7128C217.247 94.708 217.209 94.7056 217.161 94.7056C217.008 94.7056 216.891 94.7558 216.81 94.856C216.729 94.9562 216.645 95.1136 216.56 95.3284C216.478 95.5288 216.397 95.6934 216.316 95.8223C216.24 95.9464 216.135 96.0537 216.001 96.1444L217.54 98.2631H216.731L215.386 96.4021ZM219.364 97.3612C219.464 96.8506 219.639 96.1897 219.887 95.3785L220.295 94.0758H221.003L219.693 98.2703L219.443 99.0648C219.347 99.3607 219.226 99.5802 219.078 99.7233C218.935 99.8665 218.756 99.9381 218.541 99.9381C218.369 99.9381 218.162 99.8904 217.918 99.7949L218.04 99.2151C218.193 99.2724 218.307 99.301 218.384 99.301C218.598 99.301 218.751 99.1555 218.842 98.8644L219.013 98.2703L217.682 94.0758H218.426L218.827 95.4214L219.364 97.3612ZM224.548 96.8459C224.543 97.2133 224.488 97.5068 224.383 97.7263C224.283 97.941 224.121 98.0961 223.897 98.1915C223.677 98.287 223.384 98.3347 223.016 98.3347C222.467 98.3347 222.069 98.2106 221.821 97.9625C221.573 97.7096 221.449 97.3016 221.449 96.7385V95.5503C221.449 95.0158 221.582 94.6293 221.849 94.3907C222.121 94.1473 222.51 94.0256 223.016 94.0256C223.508 94.0256 223.88 94.1306 224.133 94.3406C224.39 94.5506 224.529 94.9132 224.548 95.4286L223.904 95.4358C223.889 95.1256 223.811 94.918 223.668 94.813C223.529 94.708 223.312 94.6555 223.016 94.6555C222.806 94.6555 222.639 94.6794 222.515 94.7271C222.391 94.7701 222.296 94.8584 222.229 94.992C222.162 95.1208 222.129 95.3069 222.129 95.5503V96.7385C222.129 97.1012 222.198 97.3493 222.336 97.4829C222.479 97.6165 222.706 97.6833 223.016 97.6833C223.226 97.6833 223.393 97.6619 223.517 97.6189C223.641 97.576 223.734 97.4948 223.796 97.3755C223.863 97.2562 223.899 97.0797 223.904 96.8459H224.548ZM228.33 96.8459C228.325 97.2133 228.27 97.5068 228.165 97.7263C228.065 97.941 227.903 98.0961 227.678 98.1915C227.459 98.287 227.165 98.3347 226.798 98.3347C226.249 98.3347 225.851 98.2106 225.602 97.9625C225.354 97.7096 225.23 97.3016 225.23 96.7385V95.5503C225.23 95.0158 225.364 94.6293 225.631 94.3907C225.903 94.1473 226.292 94.0256 226.798 94.0256C227.289 94.0256 227.662 94.1306 227.914 94.3406C228.172 94.5506 228.311 94.9132 228.33 95.4286L227.685 95.4358C227.671 95.1256 227.592 94.918 227.449 94.813C227.311 94.708 227.094 94.6555 226.798 94.6555C226.588 94.6555 226.421 94.6794 226.297 94.7271C226.173 94.7701 226.077 94.8584 226.01 94.992C225.944 95.1208 225.91 95.3069 225.91 95.5503V96.7385C225.91 97.1012 225.979 97.3493 226.118 97.4829C226.261 97.6165 226.488 97.6833 226.798 97.6833C227.008 97.6833 227.175 97.6619 227.299 97.6189C227.423 97.576 227.516 97.4948 227.578 97.3755C227.645 97.2562 227.681 97.0797 227.685 96.8459H228.33ZM231.503 94.7343H230.436V98.2631H229.756V94.7343H228.69V94.1044H231.503V94.7343ZM233.423 94.0972C233.79 94.0972 234.093 94.1879 234.332 94.3692C234.575 94.5506 234.697 94.8178 234.697 95.1709C234.697 95.3809 234.661 95.5503 234.59 95.6791C234.518 95.808 234.392 95.9129 234.21 95.9941C234.435 96.0704 234.606 96.1969 234.726 96.3734C234.85 96.55 234.912 96.7576 234.912 96.9962C234.912 97.8408 234.413 98.2631 233.416 98.2631H231.956V94.0972H233.423ZM232.621 95.765H233.437C233.619 95.765 233.762 95.7197 233.867 95.629C233.972 95.5336 234.024 95.4024 234.024 95.2353C234.024 95.0635 233.969 94.9323 233.86 94.8416C233.75 94.751 233.604 94.7056 233.423 94.7056H232.621V95.765ZM233.437 97.6404C233.728 97.6404 233.934 97.5879 234.053 97.4829C234.172 97.3732 234.232 97.2085 234.232 96.989C234.232 96.7552 234.163 96.5882 234.024 96.488C233.886 96.3878 233.693 96.3376 233.444 96.3376H232.636V97.6404H233.437ZM237.909 98.2631L237.852 97.6976C237.771 97.8647 237.632 98.0078 237.437 98.1271C237.246 98.2416 237.029 98.2989 236.785 98.2989C236.351 98.2989 236.041 98.2059 235.855 98.0198C235.673 97.8336 235.568 97.5927 235.54 97.2968C235.535 97.2634 235.533 97.2181 235.533 97.1608C235.533 96.8268 235.647 96.55 235.876 96.3305C236.11 96.1062 236.427 95.9654 236.828 95.9082C237.048 95.8748 237.384 95.8533 237.837 95.8438V95.4358C237.837 95.1781 237.778 94.9848 237.658 94.856C237.544 94.7224 237.339 94.6555 237.043 94.6555C236.828 94.6555 236.663 94.708 236.549 94.813C236.434 94.9132 236.38 95.0946 236.384 95.357H235.719C235.704 94.9037 235.812 94.5696 236.041 94.3549C236.27 94.1402 236.611 94.0328 237.064 94.0328C237.542 94.0328 237.904 94.1449 238.152 94.3692C238.4 94.5887 238.525 94.9442 238.525 95.4358V98.2631H237.909ZM237.852 96.4092C237.661 96.4092 237.489 96.414 237.336 96.4235C237.188 96.4283 237.038 96.4474 236.885 96.4808C236.442 96.5762 236.22 96.7862 236.22 97.1107C236.22 97.1536 236.222 97.1871 236.227 97.2109C236.241 97.3636 236.306 97.4758 236.42 97.5473C236.539 97.6141 236.685 97.6475 236.857 97.6475C237.205 97.6475 237.453 97.5378 237.601 97.3183C237.754 97.094 237.837 96.791 237.852 96.4092Z" fill="black"/>
</svg>
