<svg width="1920" height="5592" viewBox="0 0 1920 5592" fill="none" xmlns="http://www.w3.org/2000/svg">
<g clip-path="url(#clip0_1_5)">
<path d="M328.325 2285.88L189.203 2297.03L246.247 2424.41L139.989 2333.92L90.2559 2464.33L79.1071 2325.2L-48.2712 2382.25L42.2197 2275.99L-88.1869 2226.26L50.9354 2215.11L-6.10902 2087.73L100.149 2178.22L149.882 2047.81L161.031 2186.94L288.409 2129.89L197.918 2236.15L328.325 2285.88Z" fill="#C6FF34"/>
<path d="M2056.32 1157.88L1917.2 1169.03L1974.25 1296.41L1867.99 1205.92L1818.26 1336.33L1807.11 1197.2L1679.73 1254.25L1770.22 1147.99L1639.81 1098.26L1778.94 1087.11L1721.89 959.729L1828.15 1050.22L1877.88 919.813L1889.03 1058.94L2016.41 1001.89L1925.92 1108.15L2056.32 1157.88Z" fill="#C6FF34"/>
<path d="M1943.74 3181.65L1918.39 3335.39L2071.23 3365.7L1925.41 3420.62L1975.58 3568.14L1855.11 3469.32L1752.44 3586.53L1777.79 3432.79L1624.95 3402.47L1770.76 3347.55L1720.6 3200.03L1841.07 3298.86L1943.74 3181.65Z" fill="black"/>
<path d="M141.672 3947.09L147.414 4098.44L295.352 4065.97L180.6 4164.82L298.229 4260.24L149.394 4232.15L148.137 4383.61L77.2944 4249.74L-41.9026 4343.19L18.5937 4204.33L-128.785 4169.4L17.4948 4130.13L-47.087 3993.12L74.825 4083L141.672 3947.09Z" fill="white"/>
</g>
<defs>
<clipPath id="clip0_1_5">
<rect width="1920" height="5592" fill="white"/>
</clipPath>
</defs>
</svg>
